PathFileType	4	(X/Y/Z)	C:\Users\Basilio\Documents\Thesis Gigler\squatting_fais\c3dfiles\058\SLS_back_pre2\markers_experimental.trc
DataRate	CameraRate	NumFrames	NumMarkers	Units	OrigDataRate	OrigDataStartFrame	OrigNumFrames
200.000000	200.000000	4	61	mm	200.000000	0	1487
Frame#	Time	FHD			LBHD			RBHD			C7			T10			CLAV			LSHO			LUUPA			LMUPA			LDUPA			LLEP			LMEP			LUL			LRFIN			RSHO			RUPA1			RMUPA			RDUPA			RLEP			RMEP			RRAD			RUL			RUFIN			LASI			RASI			USACR			LSACR			RSACR			LTHI1			LTHI2			LTHI3			LTHI4			LLFC			LMFC			LTIB1			LTIB2			LTIB3			LTIB4			LLMAL			LMMAL			LHEE			LMT1			LMT5			RTHI			RTHI2			RTHI3			RTHI4			RLFC			RMFC			RTIB1			RTIB2			RTIB3			RTIB4			RLMAL			RMMAL			RHEE			RMT1			RMT2			RMT5			LRAD			LMT2			
		X1	Y1	Z1	X2	Y2	Z2	X3	Y3	Z3	X4	Y4	Z4	X5	Y5	Z5	X6	Y6	Z6	X7	Y7	Z7	X8	Y8	Z8	X9	Y9	Z9	X10	Y10	Z10	X11	Y11	Z11	X12	Y12	Z12	X13	Y13	Z13	X14	Y14	Z14	X15	Y15	Z15	X16	Y16	Z16	X17	Y17	Z17	X18	Y18	Z18	X19	Y19	Z19	X20	Y20	Z20	X21	Y21	Z21	X22	Y22	Z22	X23	Y23	Z23	X24	Y24	Z24	X25	Y25	Z25	X26	Y26	Z26	X27	Y27	Z27	X28	Y28	Z28	X29	Y29	Z29	X30	Y30	Z30	X31	Y31	Z31	X32	Y32	Z32	X33	Y33	Z33	X34	Y34	Z34	X35	Y35	Z35	X36	Y36	Z36	X37	Y37	Z37	X38	Y38	Z38	X39	Y39	Z39	X40	Y40	Z40	X41	Y41	Z41	X42	Y42	Z42	X43	Y43	Z43	X44	Y44	Z44	X45	Y45	Z45	X46	Y46	Z46	X47	Y47	Z47	X48	Y48	Z48	X49	Y49	Z49	X50	Y50	Z50	X51	Y51	Z51	X52	Y52	Z52	X53	Y53	Z53	X54	Y54	Z54	X55	Y55	Z55	X56	Y56	Z56	X57	Y57	Z57	X58	Y58	Z58	X59	Y59	Z59	X60	Y60	Z60	X61	Y61	Z61	

1	0	-164.957763671875	1771.219482421875	-866.970886230469	-343.4878845214844	1773.810302734375	-896.239929199219	-189.4623718261719	1771.555541992188	-1006.817626953125	-406.105682373047	1592.085693359375	-917.9763793945315	-388.3539428710939	1275.1337890625	-902.1953125000002	-248.9471588134766	1541.402954101563	-895.6309814453127	-279.9149475097657	1589.01513671875	-1065.255249023438	-202.9505920410157	1401.952758789063	-1148.276123046875	-159.3851623535157	1423.67431640625	-1135.565673828125	-145.6277770996094	1363.750610351563	-1140.460815429688	-70.79900360107423	1325.21826171875	-1109.214233398438	-100.1601791381836	1287.710083007813	-1039.625122070313	-87.81843566894533	1558.823120117188	-959.8731079101565	-163.7013092041016	1633.962280273438	-998.5301513671877	-301.3661499023438	1590.504272460938	-720.3220214843751	-368.7873840332032	1364.963500976563	-624.0653076171876	-320.7902526855469	1352.239379882813	-622.6664428710939	-347.1036682128907	1299.34521484375	-616.0811767578126	-349.0527343750001	1232.476684570313	-617.4143066406251	-351.1768188476563	1205.39404296875	-697.8338623046876	-194.8678131103516	998.873718261719	-607.6757812500001	-255.4297637939454	989.0729980468752	-554.9268188476564	-163.1701354980469	923.1033935546877	-565.0398559570314	-193.8873291015626	1080.1474609375	-1019.93701171875	-193.9806213378907	1088.900146484375	-775.5681152343752	-390.3042907714845	1158.540771484375	-890.3923950195315	-395.2141418457032	1125.425903320313	-916.9901123046877	-392.559295654297	1126.898559570313	-859.3772583007815	-271.7449035644532	800.0443115234377	-1096.048950195313	-247.8172302246094	718.3087768554689	-1093.521362304688	-200.7876434326172	716.7929687500001	-1075.95849609375	-280.1336059570313	668.9033813476564	-1086.897705078125	-290.9464416503907	566.5700683593751	-1079.356689453125	-254.9728240966797	553.0920410156251	-957.6838989257815	-241.0722351074219	427.0109863281251	-1056.182373046875	-303.1466369628907	395.1176757812501	-1106.155151367188	-260.9566650390626	385.0222167968751	-1088.124145507813	-260.8664855957032	301.6489257812501	-1067.199462890625	-325.9140930175782	104.0551681518555	-1076.204956054688	-295.1610412597657	125.1542205810547	-991.3967285156252	-382.6336059570313	80.95305633544923	-1018.914978027344	-161.1180572509766	65.68445587158205	-1004.941040039063	-209.4936523437501	34.59892654418946	-1102.727783203125	-309.4735717773438	888.657409667969	-693.5277709960939	-277.5149841308594	831.9458618164065	-689.7157592773439	-245.9740753173829	830.2549438476565	-695.0818481445314	-314.4174194335938	754.9042968750001	-698.6806030273439	-328.9114685058594	572.7330322265626	-706.4333496093751	-293.1549072265626	547.3261718750001	-836.535583496094	-291.2521362304688	357.2514953613282	-771.0525512695315	-333.4958801269532	287.4567565917969	-696.2991333007814	-300.0906372070313	277.2152709960938	-729.2938232421876	-310.9183959960938	229.2179412841797	-758.7782592773439	-372.0159301757813	124.1885604858399	-708.8677978515626	-344.8841857910157	140.2511749267578	-798.2276611328127	-439.779266357422	102.9244689941407	-766.3996582031251	-229.427474975586	60.58325576782228	-778.337341308594	-223.6644287109376	61.11395645141603	-726.2035522460939	-274.0963745117188	29.86355209350587	-674.3665771484376	nan	nan	nan	nan	nan	nan	
2	0.005	-165.0455169677735	1771.498657226563	-866.997741699219	-343.5454711914063	1773.670776367188	-896.322204589844	-189.4747314453125	1771.823608398438	-1006.818786621094	-405.9131469726564	1592.067749023438	-918.1069946289065	-388.1914672851564	1275.13330078125	-902.3288574218752	-248.7808837890626	1541.315307617188	-895.8225708007815	-279.4807739257813	1588.898315429688	-1065.498168945313	-202.981430053711	1401.69482421875	-1148.462890625	-159.3857116699219	1423.403686523438	-1135.748413085938	-145.5237121582032	1363.44775390625	-1140.653564453125	-70.72716522216798	1324.966918945313	-1109.441284179688	-100.4193878173828	1287.2490234375	-1039.913208007813	-87.59568786621095	1558.584838867188	-960.0485839843752	-163.4505310058594	1633.63134765625	-998.3629150390627	-300.9920654296876	1590.62841796875	-720.5202636718751	-368.3144836425782	1364.981323242188	-624.2700195312501	-320.5739440917969	1352.257080078125	-622.8473510742189	-346.9514160156251	1299.345581054688	-616.2757568359376	-348.7799377441407	1232.54443359375	-617.6834716796876	-350.9600219726563	1205.455810546875	-698.0238647460939	-194.6658630371094	998.824401855469	-608.0015258789064	-255.3186645507813	989.0716552734377	-555.2498779296876	-162.9940185546875	923.104431152344	-565.3668823242189	-193.6665649414063	1080.176391601563	-1020.057861328125	-193.6764221191407	1088.832275390625	-775.7434692382815	-390.0788879394532	1158.511474609375	-890.5129394531252	-395.0524291992189	1125.434204101563	-917.1495361328127	-392.3934020996095	1126.88427734375	-859.5042114257815	-271.4864501953126	800.049011230469	-1096.110229492188	-247.6697998046876	718.2776489257814	-1093.486694335938	-200.7127990722657	716.7887573242189	-1075.877807617188	-279.9466552734376	668.8710327148439	-1086.964111328125	-290.7326049804688	566.5679321289064	-1079.448486328125	-254.8739013671876	553.0932617187501	-957.7009887695315	-241.0373687744141	426.984344482422	-1056.2470703125	-303.0178833007813	395.073211669922	-1106.190795898438	-260.9494323730469	384.9865112304689	-1088.270629882813	-260.8769836425782	301.6190185546876	-1067.25634765625	-325.8518676757813	104.0545959472657	-1076.203125	-295.1554870605469	125.1747665405274	-991.4062500000002	-382.6402587890626	80.96368408203126	-1018.9169921875	-161.1307678222657	65.66761016845705	-1004.932189941406	-208.7607421875001	34.0511589050293	-1102.902587890625	-309.3293457031251	888.6893310546877	-693.5779418945314	-277.4385681152344	832.0081176757815	-689.8112792968751	-245.9691925048829	830.273864746094	-695.2080078125001	-314.4060058593751	754.9488525390626	-698.6941528320314	-329.0198364257813	572.8222045898439	-706.5564575195314	-293.3792114257813	547.3582763671876	-836.6442871093752	-291.4370117187501	357.2942810058594	-771.0852661132815	-333.5419311523438	287.5101013183594	-696.3649902343751	-300.1598205566407	277.2562255859376	-729.2838745117189	-310.9098815917969	229.2820129394532	-758.8186035156251	-372.0135803222657	124.1840744018555	-708.8917846679689	-344.9182739257813	140.2891845703125	-798.244323730469	-439.768035888672	102.9413604736328	-766.4259643554689	-229.4606628417969	60.53840255737306	-778.3489379882815	-223.6469421386719	61.14951324462892	-726.2155151367189	-274.0963745117188	29.86355209350587	-674.3665771484376	nan	nan	nan	nan	nan	nan	
3	0.01	-165.0828704833985	1771.845947265625	-867.0233154296877	-343.5075988769532	1773.602172851563	-896.4783325195315	-189.3137817382813	1772.13330078125	-1006.874877929688	-405.7797241210939	1592.0283203125	-918.2647094726565	-388.0313110351564	1275.1533203125	-902.362731933594	-248.3120727539063	1541.291015625	-895.967468261719	-279.4352416992188	1588.859008789063	-1065.6953125	-202.9450683593751	1401.422973632813	-1148.615112304688	-159.369125366211	1423.181640625	-1135.963134765625	-145.5215454101563	1363.125854492188	-1140.80615234375	-70.86754608154298	1324.6611328125	-1109.683715820313	-100.4355392456055	1287.1044921875	-1040.0615234375	-87.00015258789064	1558.463134765625	-960.1470947265627	-163.3511047363282	1633.35205078125	-998.2221679687502	-300.7585449218751	1590.733032226563	-720.6930541992189	-368.0173645019532	1365.002197265625	-624.4825439453126	-320.3250122070313	1352.313598632813	-623.0477294921876	-346.7546691894532	1299.320678710938	-616.4703979492189	-348.5270996093751	1232.554809570313	-617.9191894531251	-350.7700500488282	1205.47900390625	-698.2114868164064	-194.2362518310547	998.9385986328127	-608.3843994140626	-254.7098388671876	989.5374145507815	-555.5244140625001	-162.7322540283203	923.0412597656252	-565.8173828125001	-193.5886535644532	1080.15966796875	-1020.237609863281	-193.5639343261719	1088.816162109375	-775.9165039062502	-389.9309692382814	1158.55029296875	-890.6423950195315	-394.8616638183595	1125.408813476563	-917.2517700195315	-392.2205200195314	1126.900390625	-859.601013183594	-271.2953491210938	800.0145263671877	-1096.127563476563	-247.4669036865235	718.2733154296876	-1093.5048828125	-200.8004760742188	717.2304687500001	-1075.822265625	-279.7771301269532	668.8633422851564	-1087.014892578125	-290.5954895019532	566.5404052734376	-1079.547973632813	-254.8205718994141	553.0746459960939	-957.815124511719	-240.9273529052735	426.9664611816407	-1056.395751953125	-302.9925537109376	395.057586669922	-1106.234375	-260.9005432128907	384.9795532226564	-1088.333984375	-260.8493652343751	301.6278991699219	-1067.313354492188	-325.9701232910157	104.0552597045899	-1076.176025390625	-295.1015014648438	125.1640853881836	-991.405700683594	-382.6402587890626	80.96367645263673	-1018.9169921875	-161.1705474853516	65.65775299072267	-1004.962097167969	-209.5736846923829	34.58876037597657	-1102.720336914063	-309.2183227539063	888.743347167969	-693.5718383789064	-277.3245544433594	832.0872192382815	-689.9141235351564	-245.8644714355469	830.2981567382815	-695.3432006835939	-314.4170532226563	755.0029296875001	-698.7150878906251	-329.4292907714844	573.0596923828126	-706.5919799804689	-293.6023559570313	547.4244995117189	-836.7301025390627	-291.5588378906251	357.3819885253907	-771.1342773437502	-333.6504516601563	287.6535339355469	-696.3840332031251	-299.4231567382813	276.8042907714844	-728.7119140625001	-310.9926452636719	229.3103332519532	-758.8347167968751	-372.0080261230469	124.2437362670899	-708.9137573242189	-344.8689880371094	140.2762145996094	-798.2610473632815	-439.773895263672	102.9484176635742	-766.4566040039064	-229.4078063964844	60.5654983520508	-778.369812011719	-223.6468048095704	61.149715423584	-726.2155151367189	-274.0917053222657	29.87762260437012	-674.3971557617189	nan	nan	nan	nan	nan	nan	
4	0.015	-165.1399078369141	1772.018188476563	-867.0388793945315	-343.4342956542969	1773.4736328125	-896.5993652343752	-189.1993103027344	1772.407592773438	-1006.915954589844	-405.595672607422	1592.0234375	-918.4670410156252	-387.8566284179689	1275.158325195313	-902.4826660156252	-249.1043090820313	1541.991943359375	-896.8826293945315	-279.3166503906251	1588.7294921875	-1065.90478515625	-202.9269561767579	1401.184814453125	-1148.79345703125	-159.3880615234375	1422.955932617188	-1136.172607421875	-145.33056640625	1362.870483398438	-1140.979736328125	-70.87573242187501	1324.369873046875	-1109.951171875	-100.6739349365235	1286.795288085938	-1040.332885742188	-86.30535125732423	1557.975341796875	-960.5393066406252	-163.0386810302735	1633.14306640625	-998.0945434570315	-300.5041198730469	1590.732788085938	-720.8338623046876	-367.7670593261719	1365.037353515625	-624.6411743164064	-320.1078491210938	1352.291625976563	-623.3154907226564	-346.3960571289063	1299.416625976563	-616.7221679687501	-347.6112976074219	1232.09814453125	-618.6578369140626	-350.5899353027344	1205.522094726563	-698.3982543945314	-194.0896301269532	998.8515625000002	-608.7105712890626	-254.4748840332032	989.6347656250002	-555.8170776367189	-162.4119873046875	923.0191040039065	-566.2584228515626	-193.3685760498047	1080.191772460938	-1020.354431152344	-193.3361968994141	1088.876586914063	-775.9799804687502	-389.8019104003907	1158.518920898438	-890.7375488281252	-394.7332153320314	1125.420654296875	-917.3477783203127	-392.0550842285157	1126.905883789063	-859.7603149414065	-271.1110229492188	799.9914550781252	-1096.16650390625	-247.3472137451172	718.2518310546876	-1093.491821289063	-200.5776672363282	717.2277832031251	-1075.824951171875	-279.6654052734376	668.8549194335939	-1087.111694335938	-290.4390563964844	566.5473632812501	-1079.660766601563	-254.4488525390626	553.0888671875001	-957.9582519531252	-240.6463317871094	427.065155029297	-1056.60546875	-302.9886169433594	394.9947509765626	-1106.265258789063	-260.7940979003907	384.9673461914064	-1088.432006835938	-260.8836059570313	301.5703430175782	-1067.3974609375	-325.9282226562501	104.0733489990235	-1076.176147460938	-295.1541137695313	125.1902084350586	-991.4400024414065	-382.6256408691407	80.9572219848633	-1018.93603515625	-161.1073913574219	65.6742630004883	-1004.943298339844	-209.4784545898438	34.59175491333009	-1102.73828125	-309.1892700195313	888.8770751953127	-693.6216430664064	-276.9922485351563	831.9411621093752	-690.9208984375001	-245.3443450927735	829.6484985351565	-696.1187133789064	-314.4095764160157	755.0904541015626	-698.7720947265626	-329.5321960449219	573.1415405273439	-706.6566162109376	-293.8256835937501	547.5154418945314	-836.8386840820315	-291.7626342773438	357.4708862304688	-771.1401977539065	-333.7644348144532	287.7144775390626	-696.4539184570314	-299.6347045898438	276.9750671386719	-728.7031250000001	-311.0010375976563	229.3925933837891	-758.8474731445314	-372.0240173339844	124.2836074829102	-708.9322509765626	-344.8923339843751	140.2904815673828	-798.2642211914065	-439.8067626953126	102.9739303588867	-766.4453735351564	-228.7827911376954	59.87215805053712	-778.4284667968752	-223.6469268798829	61.14952468872072	-726.2155151367189	-274.0940856933594	29.88532447814942	-674.3683471679689	-164.4184722900391	1539.050048828125	-966.223327636719	nan	nan	nan	
